<svg width="512" height="512" viewBox="0 0 512 512" xmlns="http://www.w3.org/2000/svg">
  <defs>
    <linearGradient id="bg" x1="0" y1="0" x2="1" y2="1">
      <stop offset="0%" stop-color="#2563EB"/>
      <stop offset="100%" stop-color="#22C55E"/>
    </linearGradient>

    <filter id="shadow" x="-20%" y="-20%" width="140%" height="140%">
      <feDropShadow dx="0" dy="12" stdDeviation="12" flood-color="#0F172A" flood-opacity="0.25"/>
    </filter>
  </defs>

  <!-- Background -->
  <rect x="32" y="32" width="448" height="448" rx="96" fill="url(#bg)" filter="url(#shadow)"/>

  <!-- User icon -->
  <circle cx="256" cy="174" r="58" fill="#FFFFFF" opacity="0.95"/>
  <path d="M151 351C158 294 201 260 256 260C311 260 354 294 361 351C363 368 350 384 333 384H179C162 384 149 368 151 351Z" fill="#FFFFFF" opacity="0.95"/>

  <!-- Attrition arrow -->
  <path d="M327 139H395V207" fill="none" stroke="#DCFCE7" stroke-width="28" stroke-linecap="round" stroke-linejoin="round"/>
  <path d="M395 139L312 222" fill="none" stroke="#DCFCE7" stroke-width="28" stroke-linecap="round"/>

  <!-- Prediction chart -->
  <path d="M128 407H384" stroke="#FFFFFF" stroke-width="20" stroke-linecap="round" opacity="0.9"/>
  <path d="M156 407V360" stroke="#BBF7D0" stroke-width="22" stroke-linecap="round"/>
  <path d="M218 407V326" stroke="#BBF7D0" stroke-width="22" stroke-linecap="round"/>
  <path d="M280 407V292" stroke="#BBF7D0" stroke-width="22" stroke-linecap="round"/>
  <path d="M342 407V248" stroke="#BBF7D0" stroke-width="22" stroke-linecap="round"/>

  <!-- Small ML node -->
  <circle cx="122" cy="125" r="22" fill="#FFFFFF" opacity="0.95"/>
  <circle cx="172" cy="101" r="14" fill="#DCFCE7"/>
  <circle cx="174" cy="151" r="14" fill="#DCFCE7"/>
  <path d="M141 116L160 107M141 134L160 145" stroke="#FFFFFF" stroke-width="8" stroke-linecap="round"/>
</svg>
